<svg width="24" height="24" viewBox="0 0 24 24" fill="none" xmlns="http://www.w3.org/2000/svg">
<path fill-rule="evenodd" clip-rule="evenodd" d="M1.71429 0C0.767512 0 0 0.767512 0 1.71429V12C0 12.9468 0.767512 13.7143 1.71429 13.7143H8.57143C9.5182 13.7143 10.2857 12.9468 10.2857 12V1.71429C10.2857 0.767512 9.5182 0 8.57143 0H1.71429ZM13.7143 1.71429C13.7143 0.767512 14.4818 0 15.4286 0H22.2857C23.2325 0 24 0.767512 24 1.71429V5.16C24 6.10677 23.2325 6.87429 22.2857 6.87429H15.4286C14.4818 6.87429 13.7143 6.10677 13.7143 5.16V1.71429ZM13.7143 12C13.7143 11.0532 14.4818 10.2857 15.4286 10.2857H22.2857C23.2325 10.2857 24 11.0532 24 12V22.2857C24 23.2325 23.2325 24 22.2857 24H15.4286C14.4818 24 13.7143 23.2325 13.7143 22.2857V12ZM0 18.84C0 17.8932 0.767512 17.1257 1.71429 17.1257H8.57143C9.5182 17.1257 10.2857 17.8932 10.2857 18.84V22.2857C10.2857 23.2325 9.5182 24 8.57143 24H1.71429C0.767512 24 0 23.2325 0 22.2857V18.84Z" fill="#9EFF00"/>
</svg>
