<svg width="24" height="24" viewBox="0 0 24 24" fill="none" xmlns="http://www.w3.org/2000/svg">
<path d="M12 0C5.652 0 0.5 5.152 0.5 11.5C0.5 17.848 5.652 23 12 23C18.348 23 23.5 17.848 23.5 11.5C23.5 5.152 18.348 0 12 0ZM7.4 17.825C6.6375 17.825 5.90624 17.5221 5.36707 16.9829C4.8279 16.4438 4.525 15.7125 4.525 14.95C4.525 14.1875 4.8279 13.4562 5.36707 12.9171C5.90624 12.3779 6.6375 12.075 7.4 12.075C8.1625 12.075 8.89376 12.3779 9.43293 12.9171C9.9721 13.4562 10.275 14.1875 10.275 14.95C10.275 15.7125 9.9721 16.4438 9.43293 16.9829C8.89376 17.5221 8.1625 17.825 7.4 17.825ZM9.125 6.9C9.125 6.1375 9.4279 5.40624 9.96707 4.86707C10.5062 4.3279 11.2375 4.025 12 4.025C12.7625 4.025 13.4938 4.3279 14.0329 4.86707C14.5721 5.40624 14.875 6.1375 14.875 6.9C14.875 7.6625 14.5721 8.39376 14.0329 8.93293C13.4938 9.4721 12.7625 9.775 12 9.775C11.2375 9.775 10.5062 9.4721 9.96707 8.93293C9.4279 8.39376 9.125 7.6625 9.125 6.9ZM16.6 17.825C15.8375 17.825 15.1062 17.5221 14.5671 16.9829C14.0279 16.4438 13.725 15.7125 13.725 14.95C13.725 14.1875 14.0279 13.4562 14.5671 12.9171C15.1062 12.3779 15.8375 12.075 16.6 12.075C17.3625 12.075 18.0938 12.3779 18.6329 12.9171C19.1721 13.4562 19.475 14.1875 19.475 14.95C19.475 15.7125 19.1721 16.4438 18.6329 16.9829C18.0938 17.5221 17.3625 17.825 16.6 17.825Z" fill="#9EFF00"/>
</svg>
