<svg width="23" height="20" viewBox="0 0 23 20" fill="none" xmlns="http://www.w3.org/2000/svg">
<path d="M3 5C3 5.98891 3.29324 6.9556 3.84265 7.77785C4.39206 8.60009 5.17295 9.24096 6.08658 9.6194C7.00021 9.99783 8.00555 10.0968 8.97545 9.90392C9.94535 9.711 10.8363 9.23479 11.5355 8.53553C12.2348 7.83627 12.711 6.94535 12.9039 5.97545C13.0968 5.00555 12.9978 4.00021 12.6194 3.08658C12.241 2.17295 11.6001 1.39206 10.7778 0.842652C9.9556 0.293245 8.9889 0 8 0C6.67392 0 5.40215 0.526784 4.46447 1.46447C3.52678 2.40215 3 3.67392 3 5V5Z" fill="#9EFF00"/>
<rect x="0.5" y="12.5" width="15" height="7.5" rx="3.75" fill="#9EFF00"/>
<path fill-rule="evenodd" clip-rule="evenodd" d="M20.5 5H18V7.5H15.5V10H18V12.5H20.5V10H23V7.5H20.5V5Z" fill="#9EFF00"/>
</svg>
