<svg width="23" height="24" viewBox="0 0 23 24" fill="none" xmlns="http://www.w3.org/2000/svg">
<path d="M11.75 23.9387C17.9632 23.9387 23 18.9019 23 12.6887C23 6.47552 17.9632 1.43872 11.75 1.43872C5.5368 1.43872 0.5 6.47552 0.5 12.6887C0.5 18.9019 5.5368 23.9387 11.75 23.9387Z" fill="#9EFF00"/>
<path fill-rule="evenodd" clip-rule="evenodd" d="M11.7469 5.97314C12.2541 5.97314 12.6653 6.38431 12.6653 6.89151V7.99232C13.433 8.05644 14.1171 8.41736 14.6006 8.95761C14.852 9.23853 15.0505 9.56912 15.1794 9.93368C15.3484 10.4119 15.0978 10.9366 14.6196 11.1056C14.1413 11.2746 13.6167 11.024 13.4476 10.5458C13.4001 10.4113 13.3264 10.2881 13.232 10.1826C13.031 9.95798 12.7418 9.81881 12.4189 9.81881H10.8639C10.3808 9.81881 9.98908 10.2105 9.98908 10.6937C9.98908 11.1048 10.2753 11.4605 10.677 11.5483L13.0445 12.0662C14.3886 12.3602 15.3462 13.5511 15.3462 14.9265C15.3462 16.4598 14.167 17.7191 12.6653 17.8442V18.9446C12.6653 19.4518 12.2541 19.863 11.7469 19.863C11.2397 19.863 10.8285 19.4518 10.8285 18.9446V17.8439C9.66302 17.7449 8.69395 16.9633 8.31915 15.9029C8.15013 15.4247 8.40077 14.9 8.87898 14.731C9.35719 14.5619 9.88187 14.8126 10.0509 15.2908C10.201 15.7156 10.6062 16.0177 11.0796 16.0177H11.7196C11.7287 16.0175 11.7378 16.0173 11.7469 16.0173C11.756 16.0173 11.7651 16.0175 11.7742 16.0177H12.4189C13.0208 16.0177 13.5095 15.5292 13.5095 14.9265C13.5095 14.4136 13.1523 13.97 12.652 13.8605L10.2845 13.3426C9.03963 13.0703 8.15234 11.9679 8.15234 10.6937C8.15234 9.20792 9.34727 8.00126 10.8285 7.9823V6.89151C10.8285 6.38431 11.2397 5.97314 11.7469 5.97314Z" fill="#212121"/>
</svg>
